<?xml version="1.0" encoding="UTF-8"?>
<svg width="640" height="360" viewBox="0 0 640 360" xmlns="http://www.w3.org/2000/svg">
  <defs>
    <linearGradient id="bg" x1="0%" y1="0%" x2="100%" y2="100%">
      <stop offset="0%" stop-color="#1a1f2b"/>
      <stop offset="100%" stop-color="#0d1117"/>
    </linearGradient>
    <linearGradient id="charger" x1="0%" y1="0%" x2="100%" y2="100%">
      <stop offset="0%" stop-color="#3a3f49"/>
      <stop offset="100%" stop-color="#181c24"/>
    </linearGradient>
    <linearGradient id="face" x1="0%" y1="0%" x2="100%" y2="100%">
      <stop offset="0%" stop-color="#c5cad3"/>
      <stop offset="100%" stop-color="#616773"/>
    </linearGradient>
  </defs>
  <rect x="0" y="0" width="640" height="360" fill="url(#bg)"/>
  <text x="40" y="70" fill="#8ec640" font-family="Inter, Helvetica, Arial, sans-serif" font-size="20" letter-spacing="2">TH1NKN3ST GEAR PICK</text>
  <text x="40" y="110" fill="#ecf2ff" font-family="Inter, Helvetica, Arial, sans-serif" font-size="32">Anker Prime 67W Compact Fast Charger</text>
  <text x="40" y="150" fill="#b3bdc7" font-family="Inter, Helvetica, Arial, sans-serif" font-size="18">GaN II • Dual USB-C + USB-A • Foldable Plug • Travel Ready</text>
  <g transform="translate(360 60)">
    <rect x="0" y="30" width="190" height="200" rx="24" fill="url(#charger)"/>
    <rect x="140" y="35" width="90" height="190" rx="22" fill="url(#face)"/>
    <rect x="170" y="96" width="20" height="62" rx="6" fill="#1f2430"/>
    <rect x="170" y="112" width="20" height="13" rx="3" fill="#24a5ff"/>
    <rect x="200" y="96" width="20" height="62" rx="6" fill="#1f2430"/>
    <rect x="200" y="112" width="20" height="13" rx="3" fill="#24a5ff"/>
    <rect x="170" y="183" width="20" height="14" rx="4" fill="#1477ff"/>
    <text x="120" y="215" fill="#1f2430" font-family="Inter, Helvetica, Arial, sans-serif" font-size="18" font-weight="600">67W</text>
    <text x="112" y="240" fill="#1f2430" font-family="Inter, Helvetica, Arial, sans-serif" font-size="14">GaNPrime</text>
  </g>
  <g transform="translate(40 200)">
    <rect x="0" y="0" width="280" height="120" rx="16" fill="#1f2430" stroke="#303745" stroke-width="2"/>
    <text x="20" y="36" fill="#66bb6a" font-family="Inter, Helvetica, Arial, sans-serif" font-size="16">Highlights</text>
    <text x="20" y="62" fill="#dce3f7" font-family="Inter, Helvetica, Arial, sans-serif" font-size="14">• 100W USB-C (single port)</text>
    <text x="20" y="82" fill="#dce3f7" font-family="Inter, Helvetica, Arial, sans-serif" font-size="14">• ActiveShield™ monitoring</text>
    <text x="20" y="102" fill="#dce3f7" font-family="Inter, Helvetica, Arial, sans-serif" font-size="14">• Foldable plug, travel friendly</text>
  </g>
</svg>
